<?xml version="1.0" encoding="iso-8859-1"?>
<!-- Generator: Adobe Illustrator 19.0.0, SVG Export Plug-In . SVG Version: 6.00 Build 0)  -->
<svg version="1.1" id="Capa_1" xmlns="http://www.w3.org/2000/svg" xmlns:xlink="http://www.w3.org/1999/xlink" x="0px" y="0px"
	 viewBox="0 0 330.947 330.947" style="enable-background:new 0 0 330.947 330.947;" xml:space="preserve">
<g transform="translate(1 1)">
	<path style="fill:#FDCC00;" d="M305.155,252.738H23.792c-10.658,0-19.297-8.639-19.297-19.302V29.314
		c0-10.663,8.639-19.302,19.297-19.302h281.363c10.658,0,19.297,8.639,19.297,19.302v204.121
		C324.452,244.099,315.813,252.738,305.155,252.738"/>
	<g>
		<path style="fill:#FFE100;" d="M324.452,208.606H4.495V29.314c0-10.663,8.639-19.302,19.297-19.302h281.363
			c10.658,0,19.297,8.639,19.297,19.302L324.452,208.606L324.452,208.606z"/>
		<path style="fill:#FFE100;" d="M223.905,296.87h-118.87c-1.23,0-1.71-1.699-0.684-2.411l9.963-7.023
			c10.74-7.574,15.816-21.465,12.688-34.699h74.952v0.011c-3.133,13.234,1.947,27.124,12.693,34.699l9.952,7.012
			C225.626,295.182,225.14,296.87,223.905,296.87"/>
	</g>
	<path style="fill:#FFA800;" d="M224.6,294.456l-9.952-7.012c-10.746-7.574-15.827-21.459-12.693-34.699v-0.006h-16.549v0.006
		c-3.133,13.24,1.947,27.124,12.693,34.699l9.952,7.012c1.026,0.723,0.54,2.411-0.695,2.411h16.549
		C225.14,296.867,225.626,295.179,224.6,294.456"/>
	<path style="fill:#FFFFFF;" d="M104.347,294.456l9.952-7.012c10.746-7.574,15.827-21.459,12.693-34.699v-0.006h16.55v0.006
		c3.133,13.24-1.947,27.124-12.693,34.699l-9.952,7.012c-1.026,0.723-0.54,2.411,0.695,2.411h-16.549
		C103.806,296.867,103.321,295.179,104.347,294.456"/>
	<path style="fill:#FFA800;" d="M305.155,10.012h-16.549c10.658,0,19.297,8.639,19.297,19.302v204.121
		c0,10.663-8.639,19.302-19.297,19.302h16.549c10.658,0,19.297-8.639,19.297-19.302V29.314
		C324.452,18.651,315.813,10.012,305.155,10.012"/>
	<path style="fill:#FFFFFF;" d="M23.792,10.012h16.549c-10.658,0-19.297,8.639-19.297,19.302v204.121
		c0,10.663,8.639,19.302,19.297,19.302H23.792c-10.658,0-19.297-8.639-19.297-19.302V29.314
		C4.495,18.651,13.134,10.012,23.792,10.012"/>
	<path style="fill:#FFE100;" d="M225.155,318.936H103.792c-6.09,0-11.033-4.943-11.033-11.033s4.943-11.033,11.033-11.033h121.363
		c6.09,0,11.033,4.943,11.033,11.033S231.245,318.936,225.155,318.936"/>
	<path style="fill:#FFA800;" d="M225.155,296.87h-16.549c6.09,0,11.033,4.943,11.033,11.033c0,6.09-4.943,11.033-11.033,11.033
		h16.549c6.09,0,11.033-4.943,11.033-11.033C236.188,301.812,231.245,296.87,225.155,296.87"/>
	<path style="fill:#FFFFFF;" d="M103.792,296.87h16.549c-6.09,0-11.033,4.943-11.033,11.033c0,6.09,4.943,11.033,11.033,11.033
		h-16.549c-6.09,0-11.033-4.943-11.033-11.033C92.759,301.812,97.702,296.87,103.792,296.87"/>
	<path style="fill:#00DA6C;" d="M278.354,115.38c1.252-5.511,1.964-11.215,1.964-17.107c0-24.394-11.342-46.118-29.006-60.268
		l-48.225,60.268L278.354,115.38z"/>
	<path style="fill:#63D3FD;" d="M218.189,49.005c-13.212-10.586-29.96-16.924-48.198-16.924c-42.659,0-77.231,34.577-77.231,77.231
		s34.572,77.231,77.232,77.231c36.768,0,67.472-25.718,75.261-60.13l-75.261-17.101l48.22-60.273L218.189,49.005z"/>
	<path d="M223.904,302.365H105.035c-2.95,0-5.531-1.91-6.421-4.754c-0.901-2.879,0.145-5.96,2.604-7.666l9.93-6.999
		c8.893-6.272,13.115-17.903,10.506-28.944l-1.597-6.759h87.393v6.136l-0.148,0.635c-2.613,11.038,1.611,22.668,10.512,28.942
		l9.951,7.012c2.44,1.718,3.471,4.799,2.564,7.664C229.431,300.463,226.85,302.365,223.904,302.365z M118.243,291.375h92.461
		c-10.216-7.618-15.834-20.269-15.085-33.142h-62.284C134.078,271.108,128.457,283.762,118.243,291.375z"/>
	<path d="M305.155,258.233H23.792C10.122,258.233-1,247.109-1,233.435V29.314C-1,15.641,10.122,4.517,23.792,4.517h281.363
		c13.67,0,24.792,11.124,24.792,24.797v204.121C329.947,247.109,318.825,258.233,305.155,258.233z M23.792,15.507
		c-7.611,0-13.802,6.194-13.802,13.807v204.121c0,7.613,6.191,13.807,13.802,13.807h281.363c7.61,0,13.802-6.194,13.802-13.807
		V29.314c0-7.613-6.191-13.807-13.802-13.807C305.155,15.507,23.792,15.507,23.792,15.507z"/>
	<path d="M329.947,214.101H-1V29.314C-1,15.641,10.122,4.517,23.792,4.517h281.363c13.67,0,24.792,11.124,24.792,24.797V214.101
		L329.947,214.101z M9.99,203.111h308.967V29.314c0-7.613-6.191-13.807-13.802-13.807H23.792c-7.611,0-13.802,6.194-13.802,13.807
		V203.111z"/>
	<path d="M225.155,324.43H103.792c-9.114,0-16.528-7.414-16.528-16.527c0-9.113,7.414-16.528,16.528-16.528h121.363
		c9.114,0,16.528,7.414,16.528,16.528C241.683,317.016,234.269,324.43,225.155,324.43z M103.792,302.365
		c-3.054,0-5.538,2.484-5.538,5.538c0,3.053,2.484,5.538,5.538,5.538h121.363c3.054,0,5.538-2.484,5.538-5.538
		c0-3.053-2.485-5.538-5.538-5.538H103.792z"/>
	<path d="M169.99,230.672c0,3.045-2.466,5.516-5.516,5.516s-5.516-2.471-5.516-5.516c0-3.045,2.466-5.516,5.516-5.516
		C167.524,225.155,169.99,227.627,169.99,230.672"/>
	<path d="M278.354,120.875c-0.407,0-0.815-0.045-1.218-0.136l-75.267-17.107c-1.845-0.42-3.345-1.759-3.97-3.545
		c-0.624-1.786-0.285-3.768,0.897-5.246l48.226-60.268c0.911-1.138,2.237-1.868,3.685-2.029c1.452-0.162,2.902,0.261,4.04,1.173
		c19.742,15.814,31.065,39.344,31.065,64.556c0,6.026-0.707,12.191-2.1,18.325c-0.323,1.421-1.198,2.656-2.431,3.432
		C280.398,120.586,279.381,120.875,278.354,120.875z M212.857,94.859l61.161,13.901c0.535-3.528,0.804-7.037,0.804-10.486
		c0-20.02-8.239-38.821-22.784-52.381L212.857,94.859z"/>
	<path d="M169.992,192.037c-45.615,0-82.726-37.111-82.726-82.726s37.111-82.725,82.726-82.725c18.975,0,36.83,6.269,51.634,18.131
		c0.44,0.353,0.824,0.772,1.137,1.242c1.327,1.991,1.234,4.644-0.26,6.512l-42.741,53.426l66.709,15.158
		c2.957,0.672,4.811,3.613,4.141,6.571c-4.076,18.007-14.256,34.353-28.664,46.026C207.313,185.508,188.861,192.037,169.992,192.037
		z M169.992,37.575c-39.556,0-71.736,32.18-71.736,71.736s32.18,71.736,71.736,71.736c31.869,0,59.297-20.519,68.49-50.539
		l-69.708-15.839c-1.845-0.419-3.345-1.758-3.969-3.545c-0.624-1.786-0.286-3.769,0.896-5.246l44.672-55.838
		C198.463,41.868,184.61,37.575,169.992,37.575z"/>
</g>
<g>
</g>
<g>
</g>
<g>
</g>
<g>
</g>
<g>
</g>
<g>
</g>
<g>
</g>
<g>
</g>
<g>
</g>
<g>
</g>
<g>
</g>
<g>
</g>
<g>
</g>
<g>
</g>
<g>
</g>
</svg>
