<svg height="480pt" viewBox="0 0 480 480" width="480pt" xmlns="http://www.w3.org/2000/svg"><path d="m112 312v128c.027344 22.082031 17.917969 39.972656 40 40h176c22.082031-.027344 39.972656-17.917969 40-40v-40h-240v-88zm240 104v24c0 13.253906-10.746094 24-24 24h-176c-13.253906 0-24-10.746094-24-24v-24zm0 0"/><path d="m368 136v-96c-.027344-22.082031-17.917969-39.9726562-40-40h-176c-22.082031.0273438-39.972656 17.917969-40 40v80h16v-12.449219c13.15625 7.871094 30.074219 5.078125 40-6.605469 6 7.015626 14.769531 11.054688 24 11.054688s18-4.039062 24-11.054688c6 7.015626 14.769531 11.054688 24 11.054688s18-4.039062 24-11.054688c6 7.015626 14.769531 11.054688 24 11.054688s18-4.039062 24-11.054688c9.925781 11.683594 26.84375 14.476563 40 6.605469v28.449219zm-216-120h176c13.253906 0 24 10.746094 24 24v8h-224v-8c0-13.253906 10.746094-24 24-24zm-8 80c-8.835938 0-16-7.164062-16-16v-16h32v16c0 8.835938-7.164062 16-16 16zm48 0c-8.835938 0-16-7.164062-16-16v-16h32v16c0 8.835938-7.164062 16-16 16zm48 0c-8.835938 0-16-7.164062-16-16v-16h32v16c0 8.835938-7.164062 16-16 16zm48 0c-8.835938 0-16-7.164062-16-16v-16h32v16c0 8.835938-7.164062 16-16 16zm48 0c-8.835938 0-16-7.164062-16-16v-16h32v16c0 8.835938-7.164062 16-16 16zm0 0"/><path d="m232 432h16v16h-16zm0 0"/><path d="m472 208h-48v-16c-.027344-22.082031-17.917969-39.972656-40-40-5.511719.003906-10.960938 1.160156-16 3.390625-5.039062-2.230469-10.488281-3.386719-16-3.390625-22.082031.027344-39.972656 17.917969-40 40v16h-32c-4.417969 0-8 3.582031-8 8v160c0 4.417969 3.582031 8 8 8h192c4.417969 0 8-3.582031 8-8v-160c0-4.417969-3.582031-8-8-8zm-8 144-9.601562-12.800781c-1.574219-1.914063-3.921876-3.019531-6.398438-3.019531s-4.824219 1.105468-6.398438 3.019531l-9.601562 12.800781v-128h32zm-8 16h-16l8-10.664062zm-48-176v16h-16v-16c-.027344-8.683594-2.902344-17.113281-8.191406-24h.191406c13.253906 0 24 10.746094 24 24zm-40-17.761719c5.070312 4.515625 7.980469 10.972657 8 17.761719v16h-16v-16c.019531-6.789062 2.929688-13.246094 8-17.761719zm-40 17.761719c0-13.253906 10.746094-24 24-24h.191406c-5.289062 6.886719-8.164062 15.316406-8.191406 24v16h-16zm-40 32h24v16h16v-16h48v16h16v-16h24v144h-128zm0 0"/><path d="m32 296h176c17.671875 0 32-14.328125 32-32v-96c0-17.671875-14.328125-32-32-32h-176c-17.671875 0-32 14.328125-32 32v96c0 17.671875 14.328125 32 32 32zm-16-128c0-8.835938 7.164062-16 16-16h176c8.835938 0 16 7.164062 16 16v96c0 8.835938-7.164062 16-16 16h-176c-8.835938 0-16-7.164062-16-16zm0 0"/><path d="m152 264c5.921875-.019531 11.625-2.246094 16-6.238281 9.589844 8.714843 24.363281 8.242187 33.378906-1.0625 9.019532-9.308594 9.019532-24.089844 0-33.398438-9.015625-9.304687-23.789062-9.777343-33.378906-1.0625-7.945312-7.222656-19.722656-8.285156-28.835938-2.605469-9.113281 5.679688-13.34375 16.722657-10.359374 27.039063 2.984374 10.3125 12.457031 17.390625 23.195312 17.328125zm32-32c4.417969 0 8 3.582031 8 8s-3.582031 8-8 8-8-3.582031-8-8 3.582031-8 8-8zm-32 0c4.417969 0 8 3.582031 8 8s-3.582031 8-8 8-8-3.582031-8-8 3.582031-8 8-8zm0 0"/><path d="m192 168h16v16h-16zm0 0"/><path d="m160 168h16v16h-16zm0 0"/><path d="m40 216h32c4.417969 0 8-3.582031 8-8v-32c0-4.417969-3.582031-8-8-8h-32c-4.417969 0-8 3.582031-8 8v32c0 4.417969 3.582031 8 8 8zm8-32h16v16h-16zm0 0"/><path d="m32 232h16v16h-16zm0 0"/><path d="m64 232h16v16h-16zm0 0"/><path d="m96 232h16v16h-16zm0 0"/></svg>