<svg height="512" viewBox="0 0 60 60" width="512" xmlns="http://www.w3.org/2000/svg"><g id="Page-1" fill="none" fill-rule="evenodd"><g id="050---Web-Connections" fill-rule="nonzero" transform="translate(-1 -1)"><path id="Shape" d="m56 31c.0073145 3.5753355-.7603031 7.1097877-2.25 10.36-2.0179781 4.4312279-5.2847363 8.177574-9.4 10.78-.5630694-.7252152-1.4318826-1.146682-2.35-1.14-1.6568542 0-3 1.3431458-3 3 .0024465.2217165.0258844.442703.07.66-10.9493171 3.7317863-23.0291415-.5319244-29.21-10.31.7252152-.5630694 1.146682-1.4318826 1.14-2.35 0-1.6568542-1.34314575-3-3-3-.22171645.0024465-.44270299.0258844-.66.07-1.78669206-5.2316604-1.78669206-10.9083396 0-16.14.21729701.0441156.43828355.0675535.66.07 1.65685425 0 3-1.3431458 3-3 .006682-.9181174-.4147848-1.7869306-1.14-2.35 2.602426-4.1152637 6.3487721-7.3820219 10.78-9.4 5.8018967-2.64498302 12.3957622-2.97056184 18.43-.91-.0441156.21729701-.0675535.43828355-.07.66 0 1.65685425 1.3431458 3 3 3 .9181174.006682 1.7869306-.4147848 2.35-1.14 4.1152637 2.602426 7.3820219 6.3487721 9.4 10.78 1.4896969 3.2502123 2.2573145 6.7846645 2.25 10.36z" fill="#02a9f4"/><path id="Shape" d="m40.5 51.415c-.4541451-.2693884-.9719731-.4126541-1.5-.415-1.6568542 0-3 1.3431458-3 3 .0024465.2217165.0258844.442703.07.66-2.160827.7342249-4.4128408 1.1659842-6.692 1.283.537.034 1.077.057 1.622.057 2.7456392.0032427 5.4727499-.4495861 8.07-1.34-.0441156-.217297-.0675535-.4382835-.07-.66.0011614-1.0680681.5732745-2.0540097 1.5-2.585z" fill="#0377bc"/><path id="Shape" d="m36.07 7.34c-.0441156.21729701-.0675535.43828355-.07.66 0 1.65685425 1.3431458 3 3 3 .5280269-.0023459 1.0458549-.1456116 1.5-.415-.9267255-.5309903-1.4988386-1.51693192-1.5-2.585.0024465-.22171645.0258844-.44270299.07-.66-2.5972501-.89041395-5.3243608-1.34324274-8.07-1.34-.545 0-1.085.023-1.622.057 2.2791592.11701576 4.531173.54877513 6.692 1.283z" fill="#0377bc"/><path id="Shape" d="m53.75 20.64c-2.0179781-4.4312279-5.2847363-8.177574-9.4-10.78-.3852647.4920219-.9184959.8471588-1.521 1.013 3.4293952 2.5275838 6.1559855 5.8896097 7.921 9.767 3.0000029 6.5808938 3.0000029 14.1391062 0 20.72-1.7650145 3.8773903-4.4916048 7.2394162-7.921 9.767.6025041.1658412 1.1357353.5209781 1.521 1.013 4.1152637-2.602426 7.3820219-6.3487721 9.4-10.78 3.0000029-6.5808938 3.0000029-14.1391062 0-20.72z" fill="#0377bc"/><g fill="#ffdc00"><circle id="Oval" cx="46" cy="31" r="6"/><path id="Shape" d="m11 20c0 1.6568542-1.34314575 3-3 3-.22171645-.0024465-.44270299-.0258844-.66-.07-1.49873226-.3294558-2.50724038-1.7367894-2.33749916-3.2618886s1.46300468-2.6762491 2.99749916-2.6681114c1.6552574.0038488 2.9961512 1.3447426 3 3z"/><path id="Shape" d="m45 8c-.0038488 1.6552574-1.3447426 2.9961512-3 3-1.6568542 0-3-1.34314575-3-3 .0024465-.22171645.0258844-.44270299.07-.66.3294558-1.49873226 1.7367894-2.50724038 3.2618886-2.33749916s2.6762491 1.46300468 2.6681114 2.99749916z"/><path id="Shape" d="m45 54c.0081377 1.5344945-1.1430122 2.8277579-2.6681114 2.9974992-1.5250992.1697412-2.9324328-.8387669-3.2618886-2.3374992-.0441156-.217297-.0675535-.4382835-.07-.66 0-1.6568542 1.3431458-3 3-3 1.6552574.0038488 2.9961512 1.3447426 3 3z"/><path id="Shape" d="m11 42c-.0038488 1.6552574-1.3447426 2.9961512-3 3-1.53449448.0081377-2.82775794-1.1430122-2.99749916-2.6681114s.8387669-2.9324328 2.33749916-3.2618886c.21729701-.0441156.43828355-.0675535.66-.07 1.65685425 0 3 1.3431458 3 3z"/></g><path id="Shape" d="m57 31c.0081461-3.5303215-.7139798-7.0241719-2.121-10.262 3.559-5.444 8.567-14.622 4.778-18.395-3.068-3.071-9.7-.339-15 2.692-.9059505-.82787993-2.1450321-1.18802893-3.3536032-.97475166-1.2085712.21327726-2.2495365.97578746-2.8173968 2.06375166-5.8478324-1.78666559-12.1408339-1.43215027-17.751 1-5.443-3.561-14.621-8.567-18.392-4.781-3.07 3.07-.339 9.706 2.692 15-.82787993.9059505-1.18802893 2.1450321-.97475166 3.3536032.21327726 1.2085712.97578746 2.2495365 2.06375166 2.8173968-1.49866035 4.8802026-1.49866035 10.0977974 0 14.978-1.08690925.5680421-1.84860967 1.6083885-2.06183958 2.816104-.21322991 1.2077154.14616387 2.4459982.97283958 3.351896-3.035 5.291-5.762 11.927-2.693 14.996 1.01123175.9412525 2.36271297 1.4291871 3.742 1.351 4.427 0 10.583-3.468 14.655-6.127 5.6099549 2.4315606 11.9024323 2.7860664 17.75 1 .568342 1.0883952 1.6100659 1.8509949 2.8193176 2.0638968 1.2092516.2129019 2.4487902-.1480566 3.3546824-.9768968 3.65 2.092 7.933 4.042 11.253 4.042 1.37788.0776564 2.728055-.4086232 3.74-1.347 3.79-3.774-1.218-12.951-4.777-18.4 1.4072136-3.2377668 2.1293481-6.731658 2.121-10.262zm-3.471 8.261c-.767-1.1-1.6-2.244-2.492-3.412 2.6188845-2.7030326 2.6188845-6.9969674 0-9.7.889-1.168 1.725-2.31 2.492-3.412 1.9613339 5.3327102 1.9613339 11.1892898 0 16.522zm-32.972 13.332c-3.8030701-1.8354881-7.0522132-4.6454086-9.417-8.144.9431291-1.1888676 1.1266468-2.8111428.4729307-4.1806514-.6537161-1.3695087-2.03046796-2.2470106-3.5479307-2.2613486-1.42001433-4.5634176-1.42001433-9.4505824 0-14.014 1.51746274-.014338 2.8942146-.8918399 3.5479307-2.2613486.6537161-1.3695086.4701984-2.9917838-.4729307-4.1806514 2.364525-3.4985748 5.6137611-6.3082307 9.417-8.143 3.4091049 2.3170417 6.6793861 4.8320262 9.794 7.532 2.526 2.158 5.093 4.539 7.632 7.077.945.945 1.784 1.808 2.552 2.62-2.0466954 2.5486252-2.0466954 6.1773748 0 8.726-.768.812-1.607 1.675-2.552 2.62-2.539 2.538-5.106 4.919-7.635 7.08-3.1137898 2.6990826-6.3830593 5.2133916-9.791 7.53zm20.443-21.593c0-2.7614237 2.2385763-5 5-5s5 2.2385763 5 5-2.2385763 5-5 5c-2.7600532-.0033061-4.9966939-2.2399468-5-5zm17.244-27.242c1.888 1.882.168 7.634-4.382 14.867-1.9656511-3.6298467-4.7701888-6.7374664-8.18-9.064.3925233-.90505109.4229461-1.92618589.085-2.853 6.084-3.459 10.833-4.596 12.477-2.95zm-16.244 2.242c1.1045695 0 2 .8954305 2 2s-.8954305 2-2 2-2-.8954305-2-2 .8954305-2 2-2zm-3.993 2.065c.014338 1.51746274.8918399 2.8942146 2.2613486 3.5479307 1.3695086.6537161 2.9917838.4701984 4.1806514-.4729307 3.5021891 2.3648328 6.3147485 5.6159597 8.151 9.422-.936 1.388-1.987 2.849-3.136 4.36-2.3439636-1.3444118-5.254464-1.2094931-7.464.346-.783-.827-1.637-1.705-2.6-2.665-2.575-2.575-5.182-4.992-7.745-7.181-2.8538748-2.4676398-5.8331685-4.7863887-8.926-6.947 4.909692-1.81489127 10.2810522-1.95900865 15.281-.41zm-34.249-4.309c1.881-1.888 7.633-.166 14.867 4.382-3.6296624 1.9655266-6.7369833 4.770104-9.063 8.18-.49396878-.2100116-1.02524122-.3181707-1.562-.318-.440672.0048076-.87740946.0835691-1.292.233-3.459-6.086-4.597-10.833-2.95-12.477zm4.242 14.244c1.1045695 0 2 .8954305 2 2s-.8954305 2-2 2-2-.8954305-2-2 .8954305-2 2-2zm0 22c1.1045695 0 2 .8954305 2 2s-.8954305 2-2 2-2-.8954305-2-2 .8954305-2 2-2zm-4.243 18.243c-1.646-1.646-.508-6.39 2.951-12.476.41459054.1494309.851328.2281924 1.292.233.53675878.0001707 1.06803122-.1079884 1.562-.318 2.3254703 3.4100064 5.4324993 6.2146298 9.062 8.18-7.234 4.548-12.986 6.269-14.867 4.381zm18.97-4.718c3.0909753-2.1603207 6.0689016-4.4780431 8.922-6.944 2.566-2.192 5.173-4.609 7.748-7.184.961-.961 1.815-1.838 2.6-2.665 2.209536 1.5554931 5.1200364 1.6904118 7.464.346 1.149 1.511 2.2 2.972 3.136 4.36-1.834585 3.8056175-4.6454251 7.0567513-8.146 9.422-1.1888676-.9431291-2.8111428-1.1266468-4.1806514-.4729307-1.3695087.6537161-2.2470106 2.030468-2.2613486 3.5479307-4.9996087 1.549007-10.3706529 1.4048887-15.28-.41zm19.273 2.475c-1.1045695 0-2-.8954305-2-2s.8954305-2 2-2 2 .8954305 2 2-.8954305 2-2 2zm16.243 2.243c-1.645 1.646-6.389.51-12.476-2.951.3379461-.9268141.3075233-1.9479489-.085-2.853 3.410016-2.3262991 6.2146031-5.4339736 8.18-9.064 4.55 7.233 6.27 12.986 4.381 14.868z" fill="#000"/></g></g></svg>