<?xml version="1.0" encoding="iso-8859-1"?>
<!-- Generator: Adobe Illustrator 19.0.0, SVG Export Plug-In . SVG Version: 6.00 Build 0)  -->
<svg version="1.1" id="Capa_1" xmlns="http://www.w3.org/2000/svg" xmlns:xlink="http://www.w3.org/1999/xlink" x="0px" y="0px"
	 viewBox="0 0 512 512" style="enable-background:new 0 0 512 512;" xml:space="preserve">
<g>
	<g>
		<g>
			<circle cx="256" cy="181.333" r="53.333"/>
			<path d="M182.854,341.333h146.292c12.604,0,22.854-11.063,22.854-24.667v-6.833c0-17.823-8.833-34.104-23.042-42.49
				c-17.042-10.042-43.542-22.01-72.958-22.01s-55.917,11.969-72.958,22.01C168.833,275.729,160,292.01,160,309.833v6.833
				C160,330.271,170.25,341.333,182.854,341.333z"/>
			<path d="M245.333,85.333h21.333c5.896,0,10.667-4.771,10.667-10.667c0-5.896-4.771-10.667-10.667-10.667h-21.333
				c-5.896,0-10.667,4.771-10.667,10.667C234.667,80.563,239.438,85.333,245.333,85.333z"/>
			<path d="M384,0H128c-23.531,0-42.667,19.135-42.667,42.667v426.667C85.333,492.865,104.469,512,128,512h256
				c23.531,0,42.667-19.135,42.667-42.667V42.667C426.667,19.135,407.531,0,384,0z M288,469.333h-64
				c-5.896,0-10.667-4.771-10.667-10.667S218.104,448,224,448h64c5.896,0,10.667,4.771,10.667,10.667S293.896,469.333,288,469.333z
				 M384,405.333H128V42.667h256V405.333z"/>
			<circle cx="352" cy="74.667" r="10.667"/>
		</g>
	</g>
</g>
<g>
</g>
<g>
</g>
<g>
</g>
<g>
</g>
<g>
</g>
<g>
</g>
<g>
</g>
<g>
</g>
<g>
</g>
<g>
</g>
<g>
</g>
<g>
</g>
<g>
</g>
<g>
</g>
<g>
</g>
</svg>
