<svg height="457.14286pt" viewBox="0 0 457.14286 457.14286" width="457.14286pt" xmlns="http://www.w3.org/2000/svg"><path d="m301.621094 448h-146.101563l33.097657-86.855469h80zm0 0" fill="#4b6981"/><path d="m301.625 457.144531h-146.105469c-3.011719 0-5.824219-1.484375-7.527343-3.957031-1.710938-2.472656-2.089844-5.632812-1.019532-8.445312l33.097656-86.859376c1.355469-3.542968 4.75-5.882812 8.546876-5.882812h80c3.792968 0 7.195312 2.347656 8.542968 5.894531l33.007813 86.855469c1.074219 2.8125.6875 5.964844-1.015625 8.4375-1.707032 2.480469-4.523438 3.957031-7.527344 3.957031zm-132.839844-18.289062h119.585938l-26.0625-68.570313h-67.394532zm0 0" fill="#2a3d4f"/><path d="m431.335938 9.144531h-405.53125c-9.203126 0-16.660157 7.457031-16.660157 16.660157v276.671874h438.855469v-276.671874c0-9.203126-7.460938-16.660157-16.664062-16.660157zm0 0" fill="#ffd766"/><path d="m448 311.617188h-438.855469c-5.050781 0-9.144531-4.089844-9.144531-9.144532v-276.667968c0-14.234376 11.574219-25.804688 25.804688-25.804688h405.535156c14.226562 0 25.804687 11.570312 25.804687 25.804688v276.667968c0 5.054688-4.09375 9.144532-9.144531 9.144532zm-429.714844-18.285157h420.570313v-267.527343c0-4.144532-3.367188-7.519532-7.515625-7.519532h-405.535156c-4.148438 0-7.519532 3.375-7.519532 7.519532zm0 0" fill="#2a3d4f"/><path d="m9.144531 302.476562v42.035157c0 9.203125 7.457031 16.660156 16.660157 16.660156h405.53125c9.203124 0 16.664062-7.457031 16.664062-16.660156v-42.035157zm0 0" fill="#4b6981"/><g fill="#2a3d4f"><path d="m431.339844 370.3125h-405.535156c-14.230469 0-25.804688-11.570312-25.804688-25.804688v-42.035156c0-5.054687 4.09375-9.140625 9.144531-9.140625h438.855469c5.050781 0 9.144531 4.085938 9.144531 9.140625v42.035156c0 14.234376-11.578125 25.804688-25.804687 25.804688zm-413.054688-58.695312v32.890624c0 4.144532 3.371094 7.519532 7.519532 7.519532h405.535156c4.148437 0 7.515625-3.375 7.515625-7.519532v-32.890624zm0 0"/><path d="m93.753906 194.167969-19.789062-77.988281h10.644531l9.257813 39.457031c2.3125 9.722656 4.402343 19.445312 5.785156 26.960937h.230468c1.277344-7.753906 3.703126-17.003906 6.363282-27.074218l10.417968-39.34375h10.527344l9.488282 39.578124c2.199218 9.25 4.28125 18.511719 5.441406 26.730469h.230468c1.621094-8.566406 3.816407-17.242187 6.246094-26.964843l10.296875-39.34375h10.296875l-22.097656 77.988281h-10.527344l-9.835937-40.613281c-2.429688-9.949219-4.050781-17.582032-5.09375-25.457032h-.230469c-1.390625 7.753906-3.121094 15.394532-6.015625 25.457032l-11.105469 40.613281zm0 0"/><path d="m193.546875 194.167969-19.789063-77.988281h10.644532l9.257812 39.457031c2.3125 9.722656 4.398438 19.445312 5.785156 26.960937h.230469c1.277344-7.753906 3.703125-17.003906 6.363281-27.074218l10.417969-39.34375h10.527344l9.488281 39.578124c2.199219 9.25 4.28125 18.511719 5.441406 26.730469h.230469c1.617188-8.566406 3.8125-17.242187 6.246094-26.964843l10.296875-39.34375h10.296875l-22.097656 77.988281h-10.527344l-9.835937-40.613281c-2.433594-9.949219-4.050782-17.582032-5.09375-25.457032h-.230469c-1.390625 7.753906-3.125 15.394532-6.015625 25.457032l-11.109375 40.613281zm0 0"/><path d="m293.339844 194.167969-19.789063-77.988281h10.644531l9.257813 39.457031c2.3125 9.722656 4.398437 19.445312 5.785156 26.960937h.230469c1.277344-7.753906 3.703125-17.003906 6.363281-27.074218l10.414063-39.34375h10.53125l9.484375 39.578124c2.203125 9.25 4.285156 18.511719 5.441406 26.730469h.230469c1.621094-8.566406 3.816406-17.242187 6.25-26.964843l10.296875-39.34375h10.296875l-22.097656 77.988281h-10.527344l-9.835938-40.613281c-2.433594-9.949219-4.054687-17.582032-5.09375-25.457032h-.230468c-1.390626 7.753906-3.125 15.394532-6.015626 25.457032l-11.109374 40.613281zm0 0"/><path d="m369.410156 188.148438c0-4.277344 2.890625-7.28125 6.941406-7.28125 4.050782 0 6.828126 3.003906 6.828126 7.28125 0 4.164062-2.664063 7.292968-6.945313 7.292968-4.046875 0-6.824219-3.128906-6.824219-7.292968zm0 0"/></g></svg>